<?xml version="1.0" encoding="UTF-8"?>
<svg width="600" height="400" viewBox="0 0 600 400" fill="none" xmlns="http://www.w3.org/2000/svg">
  <!-- Background -->
  <rect width="600" height="400" fill="#F8FAFC" rx="12"/>
  
  <!-- Dashboard Frame -->
  <rect x="50" y="50" width="500" height="300" rx="8" fill="white" filter="drop-shadow(0 4px 6px rgba(0, 0, 0, 0.1))"/>
  
  <!-- Chart Area -->
  <rect x="70" y="180" width="460" height="150" rx="4" fill="#5CCAD7" fill-opacity="0.1"/>
  
  <!-- Bar Charts -->
  <rect x="100" y="200" width="30" height="100" rx="2" fill="#2B8599"/>
  <rect x="150" y="240" width="30" height="60" rx="2" fill="#2B8599"/>
  <rect x="200" y="220" width="30" height="80" rx="2" fill="#2B8599"/>
  <rect x="250" y="180" width="30" height="120" rx="2" fill="#5CCAD7"/>
  <rect x="300" y="200" width="30" height="100" rx="2" fill="#2B8599"/>
  <rect x="350" y="160" width="30" height="140" rx="2" fill="#5CCAD7"/>
  <rect x="400" y="220" width="30" height="80" rx="2" fill="#2B8599"/>
  <rect x="450" y="240" width="30" height="60" rx="2" fill="#2B8599"/>
  
  <!-- Stats Cards -->
  <rect x="70" y="80" width="140" height="80" rx="4" fill="#5CCAD7" fill-opacity="0.2"/>
  <rect x="230" y="80" width="140" height="80" rx="4" fill="#2B8599" fill-opacity="0.2"/>
  <rect x="390" y="80" width="140" height="80" rx="4" fill="#5CCAD7" fill-opacity="0.2"/>
  
  <!-- Decorative Elements -->
  <circle cx="50" cy="350" r="20" fill="#5CCAD7" fill-opacity="0.1"/>
  <circle cx="550" cy="50" r="20" fill="#2B8599" fill-opacity="0.1"/>
</svg> 