<?xml version="1.0" encoding="UTF-8"?>
<svg width="500" height="400" viewBox="0 0 500 400" fill="none" xmlns="http://www.w3.org/2000/svg">
  <!-- Background -->
  <rect width="500" height="400" fill="#F8FAFC" rx="20"/>
  
  <!-- Person 1 -->
  <circle cx="175" cy="150" r="50" fill="#5CCAD7"/>
  <circle cx="175" cy="120" r="25" fill="#2B8599"/>
  <path d="M140 190 C140 160 210 160 210 190 L210 250 L140 250 Z" fill="#2B8599"/>
  
  <!-- Person 2 -->
  <circle cx="325" cy="150" r="50" fill="#5CCAD7"/>
  <circle cx="325" cy="120" r="25" fill="#2B8599"/>
  <path d="M290 190 C290 160 360 160 360 190 L360 250 L290 250 Z" fill="#2B8599"/>
  
  <!-- Connection Line -->
  <path d="M225 150 L275 150" stroke="#5CCAD7" stroke-width="4" stroke-dasharray="8 8"/>
  
  <!-- Decorative Elements -->
  <circle cx="250" cy="150" r="15" fill="#5CCAD7"/>
  <path d="M242 150 L258 150 M250 142 L250 158" stroke="white" stroke-width="3"/>
  
  <!-- Abstract Background Elements -->
  <circle cx="100" cy="300" r="30" fill="#5CCAD7" fill-opacity="0.1"/>
  <circle cx="400" cy="300" r="30" fill="#5CCAD7" fill-opacity="0.1"/>
  <circle cx="250" cy="350" r="20" fill="#2B8599" fill-opacity="0.1"/>
</svg> 